<svg width="13" height="13" viewBox="0 0 13 13" fill="none" xmlns="http://www.w3.org/2000/svg">
<path d="M11.4767 4.74797C11.2705 4.5325 11.0573 4.31047 10.9769 4.11523C10.9025 3.93641 10.8981 3.64 10.8938 3.35289C10.8855 2.81914 10.8768 2.2143 10.4563 1.79375C10.0357 1.3732 9.43086 1.36445 8.89711 1.35625C8.61 1.35187 8.31359 1.3475 8.13477 1.27312C7.94008 1.19273 7.7175 0.979453 7.50203 0.773281C7.12469 0.410703 6.69594 0 6.125 0C5.55406 0 5.12586 0.410703 4.74797 0.773281C4.5325 0.979453 4.31047 1.19273 4.11523 1.27312C3.9375 1.3475 3.64 1.35187 3.35289 1.35625C2.81914 1.36445 2.2143 1.3732 1.79375 1.79375C1.3732 2.2143 1.36719 2.81914 1.35625 3.35289C1.35187 3.64 1.3475 3.93641 1.27312 4.11523C1.19273 4.30992 0.979453 4.5325 0.773281 4.74797C0.410703 5.12531 0 5.55406 0 6.125C0 6.69594 0.410703 7.12414 0.773281 7.50203C0.979453 7.7175 1.19273 7.93953 1.27312 8.13477C1.3475 8.31359 1.35187 8.61 1.35625 8.89711C1.36445 9.43086 1.3732 10.0357 1.79375 10.4563C2.2143 10.8768 2.81914 10.8855 3.35289 10.8938C3.64 10.8981 3.93641 10.9025 4.11523 10.9769C4.30992 11.0573 4.5325 11.2705 4.74797 11.4767C5.12531 11.8393 5.55406 12.25 6.125 12.25C6.69594 12.25 7.12414 11.8393 7.50203 11.4767C7.7175 11.2705 7.93953 11.0573 8.13477 10.9769C8.31359 10.9025 8.61 10.8981 8.89711 10.8938C9.43086 10.8855 10.0357 10.8768 10.4563 10.4563C10.8768 10.0357 10.8855 9.43086 10.8938 8.89711C10.8981 8.61 10.9025 8.31359 10.9769 8.13477C11.0573 7.94008 11.2705 7.7175 11.4767 7.50203C11.8393 7.12469 12.25 6.69594 12.25 6.125C12.25 5.55406 11.8393 5.12586 11.4767 4.74797ZM10.8451 6.89664C10.5831 7.17008 10.3119 7.45281 10.168 7.80008C10.0302 8.13367 10.0242 8.51484 10.0188 8.88398C10.0133 9.2668 10.0073 9.66766 9.83719 9.83719C9.66711 10.0067 9.26898 10.0133 8.88398 10.0188C8.51484 10.0242 8.13367 10.0302 7.80008 10.168C7.45281 10.3119 7.17008 10.5831 6.89664 10.8451C6.6232 11.107 6.34375 11.375 6.125 11.375C5.90625 11.375 5.62461 11.1059 5.35336 10.8451C5.08211 10.5842 4.79719 10.3119 4.44992 10.168C4.11633 10.0302 3.73516 10.0242 3.36602 10.0188C2.9832 10.0133 2.58234 10.0073 2.41281 9.83719C2.24328 9.66711 2.23672 9.26898 2.23125 8.88398C2.22578 8.51484 2.21977 8.13367 2.08195 7.80008C1.93813 7.45281 1.66687 7.17008 1.40492 6.89664C1.14297 6.6232 0.875 6.34375 0.875 6.125C0.875 5.90625 1.14406 5.62461 1.40492 5.35336C1.66578 5.08211 1.93813 4.79719 2.08195 4.44992C2.21977 4.11633 2.22578 3.73516 2.23125 3.36602C2.23672 2.9832 2.24273 2.58234 2.41281 2.41281C2.58289 2.24328 2.98102 2.23672 3.36602 2.23125C3.73516 2.22578 4.11633 2.21977 4.44992 2.08195C4.79719 1.93813 5.07992 1.66687 5.35336 1.40492C5.6268 1.14297 5.90625 0.875 6.125 0.875C6.34375 0.875 6.62539 1.14406 6.89664 1.40492C7.16789 1.66578 7.45281 1.93813 7.80008 2.08195C8.13367 2.21977 8.51484 2.22578 8.88398 2.23125C9.2668 2.23672 9.66766 2.24273 9.83719 2.41281C10.0067 2.58289 10.0133 2.98102 10.0188 3.36602C10.0242 3.73516 10.0302 4.11633 10.168 4.44992C10.3119 4.79719 10.5831 5.07992 10.8451 5.35336C11.107 5.6268 11.375 5.90625 11.375 6.125C11.375 6.34375 11.1059 6.62539 10.8451 6.89664ZM8.62203 4.50297C8.66271 4.5436 8.69498 4.59185 8.717 4.64496C8.73901 4.69808 8.75034 4.75501 8.75034 4.8125C8.75034 4.86999 8.73901 4.92692 8.717 4.98004C8.69498 5.03315 8.66271 5.0814 8.62203 5.12203L5.55953 8.18453C5.5189 8.22521 5.47065 8.25748 5.41754 8.2795C5.36442 8.30151 5.30749 8.31284 5.25 8.31284C5.19251 8.31284 5.13558 8.30151 5.08246 8.2795C5.02935 8.25748 4.9811 8.22521 4.94047 8.18453L3.62797 6.87203C3.54588 6.78994 3.49976 6.6786 3.49976 6.5625C3.49976 6.4464 3.54588 6.33506 3.62797 6.25297C3.71006 6.17088 3.8214 6.12476 3.9375 6.12476C4.0536 6.12476 4.16494 6.17088 4.24703 6.25297L5.25 7.25648L8.00297 4.50297C8.0436 4.46229 8.09185 4.43002 8.14496 4.40801C8.19808 4.38599 8.25501 4.37466 8.3125 4.37466C8.36999 4.37466 8.42692 4.38599 8.48004 4.40801C8.53315 4.43002 8.5814 4.46229 8.62203 4.50297Z" fill="url(#paint0_linear_17025_275)" fill-opacity="0.6"/>
<defs>
<linearGradient id="paint0_linear_17025_275" x1="6.125" y1="0" x2="6.125" y2="12.25" gradientUnits="userSpaceOnUse">
<stop stop-color="#032E15"/>
<stop offset="1" stop-color="#016630"/>
</linearGradient>
</defs>
</svg>
