<svg width="62" height="23" viewBox="0 0 62 23" fill="none" xmlns="http://www.w3.org/2000/svg">
<path d="M14.5515 7.42516C14.4308 6.97772 14.2532 6.58354 14.0188 6.24263C13.7844 5.89462 13.4968 5.59988 13.1559 5.3584C12.815 5.11692 12.4244 4.93581 11.984 4.81507C11.5437 4.68723 11.0607 4.62331 10.5352 4.62331C9.47692 4.62331 8.56072 4.87899 7.78658 5.39036C7.01953 5.90172 6.42649 6.64746 6.00746 7.62757C5.58842 8.60059 5.37891 9.78311 5.37891 11.1752C5.37891 12.5743 5.58132 13.7675 5.98615 14.7547C6.39098 15.7419 6.97692 16.4948 7.74396 17.0132C8.51101 17.5317 9.44141 17.7909 10.5352 17.7909C11.5011 17.7909 12.3178 17.6347 12.9854 17.3222C13.6602 17.0026 14.1715 16.5516 14.5195 15.9692C14.8675 15.3868 15.0415 14.7014 15.0415 13.9131L16.0217 14.0303H10.7163V10.1844H20.1232V13.0715C20.1232 15.0246 19.7077 16.6972 18.8768 18.0892C18.0529 19.4813 16.9165 20.5502 15.4677 21.2959C14.0259 22.0416 12.3675 22.4145 10.4925 22.4145C8.41158 22.4145 6.58274 21.9635 5.00604 21.0615C3.42933 20.1595 2.20064 18.874 1.31996 17.205C0.439276 15.5289 -0.00106535 13.5402 -0.00106535 11.2391C-0.00106535 9.44931 0.26527 7.86195 0.79794 6.47701C1.33061 5.08496 2.0728 3.90598 3.0245 2.94007C3.98331 1.97417 5.09126 1.24263 6.34837 0.745471C7.61257 0.248312 8.97266 -0.000267148 10.4286 -0.000267148C11.6928 -0.000267148 12.8683 0.180841 13.9549 0.543057C15.0487 0.905273 16.0146 1.41664 16.8526 2.07715C17.6978 2.73766 18.3832 3.52246 18.9087 4.43155C19.4343 5.34064 19.761 6.33851 19.8889 7.42516H14.5515ZM21.5508 4.5807V0.298028H39.9918V4.5807H33.3761V22.1162H28.1772V4.5807H21.5508ZM55.8894 7.42516C55.7686 6.97772 55.5911 6.58354 55.3567 6.24263C55.1223 5.89462 54.8347 5.59988 54.4938 5.3584C54.1529 5.11692 53.7623 4.93581 53.3219 4.81507C52.8816 4.68723 52.3986 4.62331 51.873 4.62331C50.8148 4.62331 49.8986 4.87899 49.1245 5.39036C48.3574 5.90172 47.7644 6.64746 47.3453 7.62757C46.9263 8.60059 46.7168 9.78311 46.7168 11.1752C46.7168 12.5743 46.9192 13.7675 47.324 14.7547C47.7289 15.7419 48.3148 16.4948 49.0819 17.0132C49.8489 17.5317 50.7793 17.7909 51.873 17.7909C52.839 17.7909 53.6557 17.6347 54.3233 17.3222C54.998 17.0026 55.5094 16.5516 55.8574 15.9692C56.2054 15.3868 56.3794 14.7014 56.3794 13.9131L57.3596 14.0303H52.0542V10.1844H61.4611V13.0715C61.4611 15.0246 61.0456 16.6972 60.2147 18.0892C59.3908 19.4813 58.2544 20.5502 56.8056 21.2959C55.3638 22.0416 53.7054 22.4145 51.8304 22.4145C49.7495 22.4145 47.9206 21.9635 46.3439 21.0615C44.7672 20.1595 43.5385 18.874 42.6578 17.205C41.7772 15.5289 41.3368 13.5402 41.3368 11.2391C41.3368 9.44931 41.6032 7.86195 42.1358 6.47701C42.6685 5.08496 43.4107 3.90598 44.3624 2.94007C45.3212 1.97417 46.4292 1.24263 47.6863 0.745471C48.9505 0.248312 50.3105 -0.000267148 51.7665 -0.000267148C53.0307 -0.000267148 54.2061 0.180841 55.2928 0.543057C56.3865 0.905273 57.3525 1.41664 58.1905 2.07715C59.0357 2.73766 59.7211 3.52246 60.2466 4.43155C60.7722 5.34064 61.0989 6.33851 61.2267 7.42516H55.8894Z" fill="url(#paint0_linear_17005_93)" fill-opacity="0.6"/>
<defs>
<linearGradient id="paint0_linear_17005_93" x1="61.082" y1="-10.8838" x2="61.082" y2="36.1162" gradientUnits="userSpaceOnUse">
<stop stop-color="#032E15"/>
<stop offset="1" stop-color="#016630"/>
</linearGradient>
</defs>
</svg>
