<svg width="24" height="24" viewBox="0 0 24 24" fill="none" xmlns="http://www.w3.org/2000/svg">
<path opacity="0.2" d="M16.5 9C16.5 9.89002 16.2361 10.76 15.7416 11.5001C15.2471 12.2401 14.5443 12.8169 13.7221 13.1575C12.8998 13.4981 11.995 13.5872 11.1221 13.4135C10.2492 13.2399 9.44736 12.8113 8.81802 12.182C8.18869 11.5526 7.7601 10.7508 7.58647 9.87791C7.41283 9.00499 7.50195 8.10019 7.84254 7.27792C8.18314 6.45566 8.75991 5.75285 9.49994 5.25839C10.24 4.76392 11.11 4.5 12 4.5C13.1935 4.5 14.3381 4.97411 15.182 5.81802C16.0259 6.66193 16.5 7.80653 16.5 9Z" fill="white" fill-opacity="0.8"/>
<path d="M20.25 9.00002C20.2508 7.60971 19.9003 6.24173 19.2309 5.02316C18.5616 3.80459 17.5951 2.77495 16.4213 2.02986C15.2475 1.28478 13.9044 0.848421 12.5168 0.761324C11.1293 0.674226 9.74217 0.939212 8.48441 1.53167C7.22665 2.12413 6.13901 3.02484 5.32253 4.15014C4.50604 5.27545 3.98718 6.58885 3.81415 7.96835C3.64111 9.34785 3.81951 10.7487 4.33278 12.0408C4.84605 13.3329 5.67753 14.4743 6.75 15.3591V22.5C6.74991 22.6279 6.78253 22.7537 6.84477 22.8655C6.907 22.9772 6.99678 23.0712 7.10558 23.1385C7.21437 23.2057 7.33856 23.2441 7.46634 23.2498C7.59412 23.2555 7.72124 23.2285 7.83563 23.1713L12 21.0938L16.1653 23.176C16.2697 23.2259 16.3842 23.2513 16.5 23.25C16.6989 23.25 16.8897 23.171 17.0303 23.0303C17.171 22.8897 17.25 22.6989 17.25 22.5V15.3591C18.1884 14.5862 18.944 13.6152 19.4627 12.5158C19.9814 11.4163 20.2503 10.2157 20.25 9.00002ZM5.25 9.00002C5.25 7.66499 5.64588 6.35995 6.38758 5.24992C7.12928 4.13989 8.18349 3.27472 9.41689 2.76383C10.6503 2.25294 12.0075 2.11927 13.3169 2.37972C14.6262 2.64017 15.829 3.28304 16.773 4.22705C17.717 5.17105 18.3599 6.37378 18.6203 7.68316C18.8808 8.99253 18.7471 10.3497 18.2362 11.5831C17.7253 12.8165 16.8601 13.8707 15.7501 14.6124C14.6401 15.3541 13.335 15.75 12 15.75C10.2104 15.748 8.49466 15.0362 7.22922 13.7708C5.96378 12.5054 5.25199 10.7896 5.25 9.00002ZM15.75 21.2869L12.3347 19.5797C12.2305 19.5276 12.1156 19.5004 11.9991 19.5004C11.8825 19.5004 11.7676 19.5276 11.6634 19.5797L8.25 21.2869V16.3472C9.41097 16.9406 10.6962 17.25 12 17.25C13.3038 17.25 14.589 16.9406 15.75 16.3472V21.2869ZM12 14.25C13.0384 14.25 14.0534 13.9421 14.9167 13.3652C15.7801 12.7884 16.453 11.9684 16.8504 11.0091C17.2477 10.0498 17.3517 8.99419 17.1491 7.97579C16.9466 6.95739 16.4465 6.02193 15.7123 5.28771C14.9781 4.55348 14.0426 4.05347 13.0242 3.85089C12.0058 3.64832 10.9502 3.75229 9.99091 4.14965C9.0316 4.54701 8.21166 5.21991 7.63479 6.08327C7.05791 6.94663 6.75 7.96166 6.75 9.00002C6.75149 10.3919 7.30509 11.7264 8.28934 12.7107C9.27358 13.6949 10.6081 14.2485 12 14.25ZM12 5.25002C12.7417 5.25002 13.4667 5.46995 14.0834 5.88201C14.7001 6.29406 15.1807 6.87973 15.4646 7.56495C15.7484 8.25018 15.8226 9.00418 15.6779 9.7316C15.5333 10.459 15.1761 11.1272 14.6517 11.6517C14.1272 12.1761 13.459 12.5333 12.7316 12.678C12.0042 12.8227 11.2502 12.7484 10.5649 12.4646C9.87972 12.1807 9.29405 11.7001 8.88199 11.0834C8.46994 10.4667 8.25 9.7417 8.25 9.00002C8.25 8.00545 8.64509 7.05163 9.34835 6.34837C10.0516 5.6451 11.0054 5.25002 12 5.25002Z" fill="white" fill-opacity="0.8"/>
</svg>
