<svg width="19" height="19" viewBox="0 0 19 19" fill="none" xmlns="http://www.w3.org/2000/svg">
<path fill-rule="evenodd" clip-rule="evenodd" d="M13.1467 0H5.05644C2.26385 0 0 2.26385 0 5.05644V13.1467C0 15.9393 2.26385 18.2032 5.05644 18.2032H13.1467C15.9393 18.2032 18.2032 15.9393 18.2032 13.1467V5.05644C18.2032 2.26385 15.9393 0 13.1467 0ZM16.4334 13.1467C16.4279 14.9596 14.9596 16.4279 13.1467 16.4334H5.05644C3.24355 16.4279 1.77531 14.9596 1.76975 13.1467V5.05644C1.77531 3.24355 3.24355 1.77531 5.05644 1.76975H13.1467C14.9596 1.77531 16.4279 3.24355 16.4334 5.05644V13.1467ZM13.9052 5.30926C14.4637 5.30926 14.9165 4.85649 14.9165 4.29797C14.9165 3.73946 14.4637 3.28669 13.9052 3.28669C13.3467 3.28669 12.8939 3.73946 12.8939 4.29797C12.8939 4.85649 13.3467 5.30926 13.9052 5.30926ZM9.10159 4.5508C6.58826 4.5508 4.5508 6.58826 4.5508 9.10159C4.5508 11.6149 6.58826 13.6524 9.10159 13.6524C11.6149 13.6524 13.6524 11.6149 13.6524 9.10159C13.6551 7.89381 13.1765 6.73474 12.3224 5.88072C11.4684 5.0267 10.3094 4.54811 9.10159 4.5508ZM6.32055 9.10159C6.32055 10.6375 7.56565 11.8826 9.10159 11.8826C10.6375 11.8826 11.8826 10.6375 11.8826 9.10159C11.8826 7.56565 10.6375 6.32055 9.10159 6.32055C7.56565 6.32055 6.32055 7.56565 6.32055 9.10159Z" fill="white"/>
</svg>
